# xmcd
#
# Track frame offsets:
#	183
#	11528
#	24795
#	32618
#	51040
#	70260
#	84188
#	95863
#	105725
#	117923
#	128293
#
# Disc length: 1833 seconds
#
# Revision: 0
# Processed by: cddbd v1.4PL0 Copyright (c) Steve Scherf et al.
# Submitted via: EasyCDDAExtractor 4.5.2.1
#
DISCID=7a07270b
DTITLE=Uncle John Turner&Johhny Winter - same
DYEAR=1981
DGENRE=Blues
TTITLE0=got it made in the shade
TTITLE1=they call me crazy
TTITLE2=family rules
TTITLE3=ooh pooh pah do
TTITLE4=drivin´wheel
TTITLE5=allons danser
TTITLE6=struggle in houston
TTITLE7=yo´re humbuggin me
TTITLE8=roll roll roll
TTITLE9=teeny weeny bit
TTITLE10=rainin breakdown
EXTD=
EXTT0=
EXTT1=
EXTT2=
EXTT3=
EXTT4=
EXTT5=
EXTT6=
EXTT7=
EXTT8=
EXTT9=
EXTT10=
PLAYORDER=
